# Alias OBJ Model File
# Exported from SketchUp, (c) 2000-2012 Trimble Navigation Limited
# File units = millimeters

mtllib diamond4.mtl

g Mesh1 lower_main_facet1 pavilion brilliant_cut_diamond Model

usemtl _2
v 27.6055 18.0796 -59.2761
vt 5.79265e-16 -0.325679
vn 0.461984 0.757061 0.461984
v 48.5552 0 -50.5984
vt 0.34164 -1.41515
v 49.4016 0 -51.4448
vt 0.388761 -1.41515
v 40.7239 18.0796 -72.3945
vt 0.730402 -0.325679
v 14.6447 41.9032 -85.3553
vt 0.365201 1.10991
f 1/1/1 2/2/1 3/3/1 4/4/1 5/5/1 

g Mesh2 lower_main_facet2 pavilion brilliant_cut_diamond Model

v 40.7239 18.0796 -72.3945
vn -3.36967e-15 0.757061 0.653344
v 49.4016 0 -51.4448
v 50.5984 0 -51.4448
v 59.2761 18.0796 -72.3945
v 50 41.9032 -100
f 6/1/2 7/2/2 8/3/2 9/4/2 10/5/2 

g Mesh3 lower_main_facet3 pavilion brilliant_cut_diamond Model

v 72.3945 18.0796 -40.7239
vn -0.461984 0.757061 -0.461984
v 51.4448 0 -49.4016
v 50.5984 0 -48.5552
v 59.2761 18.0796 -27.6055
v 85.3553 41.9032 -14.6447
f 11/1/3 12/2/3 13/3/3 14/4/3 15/5/3 

g Mesh4 lower_main_facet4 pavilion brilliant_cut_diamond Model

v 40.7239 18.0796 -27.6055
vn 0.461984 0.757061 -0.461984
v 49.4016 0 -48.5552
v 48.5552 0 -49.4016
v 27.6055 18.0796 -40.7239
v 14.6447 41.9032 -14.6447
f 16/1/4 17/2/4 18/3/4 19/4/4 20/5/4 

g Mesh5 lower_main_facet5 pavilion brilliant_cut_diamond Model

v 59.2761 18.0796 -72.3945
vn -0.461984 0.757061 0.461984
v 50.5984 0 -51.4448
v 51.4448 0 -50.5984
v 72.3945 18.0796 -59.2761
v 85.3553 41.9032 -85.3553
f 21/1/5 22/2/5 23/3/5 24/4/5 25/5/5 

g Mesh6 lower_main_facet6 pavilion brilliant_cut_diamond Model

v 72.3945 18.0796 -59.2761
vn -0.653344 0.757061 -2.16909e-15
v 51.4448 0 -50.5984
v 51.4448 0 -49.4016
v 100 41.9032 -50
f 26/1/6 27/2/6 28/3/6 11/4/6 29/5/6 

g Mesh7 lower_main_facet7 pavilion brilliant_cut_diamond Model

v 59.2761 18.0796 -27.6055
vn 1.25866e-15 0.757061 -0.653344
v 50.5984 0 -48.5552
v 49.4016 0 -48.5552
v 40.7239 18.0796 -27.6055
v 50 41.9032 -1.64638e-15
f 30/1/7 31/2/7 32/3/7 33/4/7 34/5/7 

g Mesh8 lower_main_facet8 pavilion brilliant_cut_diamond Model

v 27.6055 18.0796 -40.7239
vn 0.653344 0.757061 3.48223e-16
v 48.5552 0 -49.4016
v 48.5552 0 -50.5984
v 27.6055 18.0796 -59.2761
v 5.63993e-15 41.9032 -50
f 35/1/8 36/2/8 37/3/8 38/4/8 39/5/8 

g Mesh9 lower_girdle_facet1 pavilion brilliant_cut_diamond Model

usemtl _13
v 14.6447 41.9032 -85.3553
vt -0.950869 1.31208
vn -0.570423 -0.727562 -0.381144
v 27.6055 18.0796 -59.2761
vt -0.380655 -0.0550889
v 3.80602 41.9032 -69.1342
vt -0.182797 1.31208
f 40/6/9 41/7/9 42/8/9

g Mesh10 lower_girdle_facet2 pavilion brilliant_cut_diamond Model

v 50 41.9032 -0
vn 0.13384 -0.727562 0.67286
v 59.2761 18.0796 -27.6055
v 69.1342 41.9032 -3.80602
f 43/6/10 44/7/10 45/8/10

g Mesh11 lower_girdle_facet3 pavilion brilliant_cut_diamond Model

v 50 41.9032 -100
vn -0.13384 -0.727562 -0.67286
v 40.7239 18.0796 -72.3945
v 30.8658 41.9032 -96.194
f 46/6/11 47/7/11 48/8/11

g Mesh12 lower_girdle_facet4 pavilion brilliant_cut_diamond Model

v 100 41.9032 -50
vn 0.67286 -0.727562 -0.13384
v 72.3945 18.0796 -59.2761
v 96.194 41.9032 -69.1342
f 49/6/12 50/7/12 51/8/12

g Mesh13 lower_girdle_facet5 pavilion brilliant_cut_diamond Model

v 14.6447 41.9032 -14.6447
vn -0.381144 -0.727562 0.570423
v 40.7239 18.0796 -27.6055
v 30.8658 41.9032 -3.80602
f 52/6/13 53/7/13 54/8/13

g Mesh14 lower_girdle_facet6 pavilion brilliant_cut_diamond Model

v 85.3553 41.9032 -85.3553
vn 0.381144 -0.727562 -0.570423
v 59.2761 18.0796 -72.3945
v 69.1342 41.9032 -96.194
f 55/6/14 56/7/14 57/8/14

g Mesh15 lower_girdle_facet7 pavilion brilliant_cut_diamond Model

v 85.3553 41.9032 -14.6447
vn 0.570423 -0.727562 0.381144
v 72.3945 18.0796 -40.7239
v 96.194 41.9032 -30.8658
f 58/6/15 59/7/15 60/8/15

g Mesh16 lower_girdle_facet8 pavilion brilliant_cut_diamond Model

v 0 41.9032 -50
vn -0.67286 -0.727562 0.13384
v 27.6055 18.0796 -40.7239
v 3.80602 41.9032 -30.8658
f 61/6/16 62/7/16 63/8/16

g Mesh17 lower_girdle_facet9 pavilion brilliant_cut_diamond Model

v 69.1342 41.9032 -3.80602
vn 0.381144 -0.727562 0.570423
v 59.2761 18.0796 -27.6055
v 85.3553 41.9032 -14.6447
f 64/8/17 65/7/17 66/6/17

g Mesh18 lower_girdle_facet10 pavilion brilliant_cut_diamond Model

v 30.8658 41.9032 -3.80602
vn -0.13384 -0.727562 0.67286
v 40.7239 18.0796 -27.6055
v 50 41.9032 -2.25597e-14
f 67/8/18 68/7/18 69/6/18

g Mesh19 lower_girdle_facet11 pavilion brilliant_cut_diamond Model

v 69.1342 41.9032 -96.194
vn 0.13384 -0.727562 -0.67286
v 59.2761 18.0796 -72.3945
v 50 41.9032 -100
f 70/8/19 71/7/19 72/6/19

g Mesh20 lower_girdle_facet12 pavilion brilliant_cut_diamond Model

v 96.194 41.9032 -69.1342
vn 0.570423 -0.727562 -0.381144
v 72.3945 18.0796 -59.2761
v 85.3553 41.9032 -85.3553
f 73/8/20 74/7/20 75/6/20

g Mesh21 lower_girdle_facet13 pavilion brilliant_cut_diamond Model

v 96.194 41.9032 -30.8658
vn 0.67286 -0.727562 0.13384
v 72.3945 18.0796 -40.7239
v 100 41.9032 -50
f 76/8/21 77/7/21 78/6/21

g Mesh22 lower_girdle_facet14 pavilion brilliant_cut_diamond Model

v 3.80602 41.9032 -30.8658
vn -0.570423 -0.727562 0.381144
v 27.6055 18.0796 -40.7239
v 14.6447 41.9032 -14.6447
f 79/8/22 80/7/22 81/6/22

g Mesh23 lower_girdle_facet15 pavilion brilliant_cut_diamond Model

v 3.80602 41.9032 -69.1342
vn -0.67286 -0.727562 -0.13384
v 27.6055 18.0796 -59.2761
v 0 41.9032 -50
f 82/8/23 83/7/23 84/6/23

g Mesh24 lower_girdle_facet16 pavilion brilliant_cut_diamond Model

v 30.8658 41.9032 -96.194
vn -0.381144 -0.727562 -0.570423
v 40.7239 18.0796 -72.3945
v 14.6447 41.9032 -85.3553
f 85/8/24 86/7/24 87/6/24

g Mesh25 culet1 pavilion brilliant_cut_diamond Model

v 50.5984 0 -51.4448
vt -0.0804405 0.11376
vn 0 -1 -0
v 51.4448 0 -50.5984
vt -0.11376 0.0804405
v 51.4448 0 -49.4016
vt -0.11376 0.0333195
v 50.5984 0 -48.5552
vt -0.0804405 0
vt -0.0333195 6.66134e-16
v 48.5552 0 -49.4016
vt 0 0.0333195
v 48.5552 0 -50.5984
vt -4.44089e-16 0.0804405
v 49.4016 0 -51.4448
vt -0.0333195 0.11376
f 88/9/25 89/10/25 90/11/25 91/12/25 17/13/25 92/14/25 93/15/25 94/16/25 

g Mesh26 table crown brilliant_cut_diamond Model

v 30.0242 58.3532 -30.0242
vt 0.325757 0.325757
vn 0 1 -0
v 50 58.3532 -21.75
vt 1.1122 0
v 69.9758 58.3532 -30.0242
vt 1.89865 0.325757
v 78.25 58.3532 -50
vt 2.22441 1.1122
v 69.9758 58.3532 -69.9758
vt 1.89865 1.89865
v 50 58.3532 -78.25
vt 1.1122 2.22441
v 30.0242 58.3532 -69.9758
vt 0.325757 1.89865
v 21.75 58.3532 -50
vt 0 1.1122
f 95/17/26 96/18/26 97/19/26 98/20/26 99/21/26 100/22/26 101/23/26 102/24/26 

g Mesh27 star_facet1 crown brilliant_cut_diamond Model

usemtl _2
v 30.0242 58.3532 -30.0242
vt 0.245037 0.626773
vn 0.143469 -0.927064 -0.346364
v 50 58.3532 -21.75
vt -0.606208 0.626773
v 34.989 53.0451 -13.7603
vt -0.180585 0.0693452
f 103/25/27 104/26/27 105/27/27

g Mesh28 upper_girdle_facet1 crown brilliant_cut_diamond Model

usemtl _13
v 65.011 53.0451 -86.2397
vt 0.448245 0.818445
vn 0.363485 0.756274 -0.543994
v 85.3553 43.9032 -85.3553
vt -0.237072 0.268328
v 69.1342 43.9032 -96.194
vt 0.531 0.268328
f 106/28/28 107/29/28 108/30/28

g Mesh29 upper_girdle_facet2 crown brilliant_cut_diamond Model

v 13.7603 53.0451 -34.989
vn -0.641684 0.756274 0.127639
v -1.26898e-14 43.9032 -50
v 3.80602 43.9032 -30.8658
f 109/28/29 110/29/29 111/30/29

g Mesh30 star_facet2 crown brilliant_cut_diamond Model

usemtl _2
v 78.25 58.3532 -50
vn -0.346364 -0.927064 0.143469
v 69.9758 58.3532 -69.9758
v 86.2397 53.0451 -65.011
f 112/25/30 113/26/30 114/27/30

g Mesh31 star_facet3 crown brilliant_cut_diamond Model

vn -0.143469 -0.927064 0.346364
v 50 58.3532 -78.25
v 65.011 53.0451 -86.2397
f 113/25/31 115/26/31 116/27/31

g Mesh32 kite_facet1 crown brilliant_cut_diamond Model

usemtl _13
v 14.6447 43.9032 -85.3553
vt 0.590984 -7.95987e-16
vn 0.391294 -0.832933 0.391294
v 34.989 53.0451 -86.2397
vt 1.18197 0.650405
v 30.0242 58.3532 -69.9758
vt 0.590984 1.02805
v 13.7603 53.0451 -65.011
vt 8.76021e-16 0.650405
f 117/31/32 118/32/32 119/33/32 120/34/32 

g Mesh33 kite_facet2 crown brilliant_cut_diamond Model

v 14.6447 43.9032 -14.6447
vn 0.391294 -0.832933 -0.391294
v 13.7603 53.0451 -34.989
v 30.0242 58.3532 -30.0242
v 34.989 53.0451 -13.7603
f 121/31/33 122/32/33 123/33/33 124/34/33 

g Mesh34 upper_girdle_facet3 crown brilliant_cut_diamond Model

v 34.989 53.0451 -86.2397
vn -0.127639 0.756274 -0.641684
v 50 43.9032 -100
v 30.8658 43.9032 -96.194
f 125/28/34 126/29/34 127/30/34

g Mesh35 kite_facet3 crown brilliant_cut_diamond Model

v 50 43.9032 -2.38851e-14
vn 1.42021e-15 -0.832933 -0.553374
v 34.989 53.0451 -13.7603
v 50 58.3532 -21.75
v 65.011 53.0451 -13.7603
f 128/31/35 129/32/35 130/33/35 131/34/35 

g Mesh36 upper_girdle_facet4 crown brilliant_cut_diamond Model

v 86.2397 53.0451 -34.989
vn 0.543994 0.756274 0.363485
v 85.3553 43.9032 -14.6447
v 96.194 43.9032 -30.8658
f 132/28/36 133/29/36 134/30/36

g Mesh37 upper_girdle_facet5 crown brilliant_cut_diamond Model

v 86.2397 53.0451 -65.011
vn 0.641684 0.756274 -0.127639
v 100 43.9032 -50
v 96.194 43.9032 -69.1342
f 135/28/37 136/29/37 137/30/37

g Mesh38 upper_girdle_facet6 crown brilliant_cut_diamond Model

v 13.7603 53.0451 -65.011
vn -0.543994 0.756274 -0.363485
v 14.6447 43.9032 -85.3553
v 3.80602 43.9032 -69.1342
f 138/28/38 139/29/38 140/30/38

g Mesh39 star_facet4 crown brilliant_cut_diamond Model

usemtl _2
v 50 58.3532 -78.25
vn 0.143469 -0.927064 0.346364
v 30.0242 58.3532 -69.9758
v 34.989 53.0451 -86.2397
f 141/25/39 142/26/39 143/27/39

g Mesh40 kite_facet4 crown brilliant_cut_diamond Model

usemtl _13
v 100 43.9032 -50
vn -0.553374 -0.832933 -1.94559e-15
v 86.2397 53.0451 -34.989
v 78.25 58.3532 -50
v 86.2397 53.0451 -65.011
f 144/31/40 145/32/40 146/33/40 147/34/40 

g Mesh41 kite_facet5 crown brilliant_cut_diamond Model

v 2.39697e-14 43.9032 -50
vn 0.553374 -0.832933 8.94827e-16
v 13.7603 53.0451 -65.011
v 13.7603 53.0451 -34.989
f 148/31/41 149/32/41 102/33/41 150/34/41 

g Mesh42 star_facet5 crown brilliant_cut_diamond Model

usemtl _2
v 30.0242 58.3532 -69.9758
vn 0.346364 -0.927064 0.143469
v 21.75 58.3532 -50
v 13.7603 53.0451 -65.011
f 151/25/42 152/26/42 153/27/42

g Mesh43 upper_girdle_facet7 crown brilliant_cut_diamond Model

usemtl _13
vn -0.363485 0.756274 0.543994
v 14.6447 43.9032 -14.6447
v 30.8658 43.9032 -3.80602
f 124/28/43 154/29/43 155/30/43

g Mesh44 kite_facet6 crown brilliant_cut_diamond Model

v 85.3553 43.9032 -85.3553
vn -0.391294 -0.832933 0.391294
v 86.2397 53.0451 -65.011
v 69.9758 58.3532 -69.9758
v 65.011 53.0451 -86.2397
f 156/31/44 157/32/44 158/33/44 159/34/44 

g Mesh45 upper_girdle_facet8 crown brilliant_cut_diamond Model

v 65.011 53.0451 -13.7603
vn 0.127639 0.756274 0.641684
v 50 43.9032 -1.26898e-14
v 69.1342 43.9032 -3.80602
f 160/28/45 161/29/45 162/30/45

g Mesh46 star_facet6 crown brilliant_cut_diamond Model

usemtl _2
v 50 58.3532 -21.75
vn -0.143469 -0.927064 -0.346364
v 69.9758 58.3532 -30.0242
v 65.011 53.0451 -13.7603
f 163/25/46 164/26/46 165/27/46

g Mesh47 kite_facet7 crown brilliant_cut_diamond Model

usemtl _13
v 50 43.9032 -100
vn -2.47096e-15 -0.832933 0.553374
v 65.011 53.0451 -86.2397
v 50 58.3532 -78.25
v 34.989 53.0451 -86.2397
f 166/31/47 167/32/47 168/33/47 169/34/47 

g Mesh48 kite_facet8 crown brilliant_cut_diamond Model

v 85.3553 43.9032 -14.6447
vn -0.391294 -0.832933 -0.391294
v 65.011 53.0451 -13.7603
v 69.9758 58.3532 -30.0242
v 86.2397 53.0451 -34.989
f 170/31/48 171/32/48 172/33/48 173/34/48 

g Mesh49 star_facet7 crown brilliant_cut_diamond Model

usemtl _2
v 69.9758 58.3532 -30.0242
vn -0.346364 -0.927064 -0.143469
v 78.25 58.3532 -50
v 86.2397 53.0451 -34.989
f 174/25/49 175/26/49 176/27/49

g Mesh50 star_facet8 crown brilliant_cut_diamond Model

v 21.75 58.3532 -50
vn 0.346364 -0.927064 -0.143469
v 30.0242 58.3532 -30.0242
v 13.7603 53.0451 -34.989
f 177/25/50 178/26/50 179/27/50

g Mesh51 upper_girdle_facet9 crown brilliant_cut_diamond Model

usemtl _13
v 69.1342 43.9032 -96.194
vn 0.127639 0.756274 -0.641684
v 50 43.9032 -100
f 180/30/51 181/29/51 116/28/51

g Mesh52 upper_girdle_facet10 crown brilliant_cut_diamond Model

v 3.80602 43.9032 -69.1342
vn -0.641684 0.756274 -0.127639
v 1.19849e-13 43.9032 -50
v 13.7603 53.0451 -65.011
f 182/30/52 183/29/52 184/28/52

g Mesh53 upper_girdle_facet11 crown brilliant_cut_diamond Model

v 3.80602 43.9032 -30.8658
vn -0.543994 0.756274 0.363485
v 14.6447 43.9032 -14.6447
v 13.7603 53.0451 -34.989
f 185/30/53 186/29/53 187/28/53

g Mesh54 upper_girdle_facet12 crown brilliant_cut_diamond Model

v 69.1342 43.9032 -3.80602
vn 0.363485 0.756274 0.543994
v 85.3553 43.9032 -14.6447
v 65.011 53.0451 -13.7603
f 188/30/54 189/29/54 190/28/54

g Mesh55 upper_girdle_facet13 crown brilliant_cut_diamond Model

v 96.194 43.9032 -30.8658
vn 0.641684 0.756274 0.127639
v 100 43.9032 -50
v 86.2397 53.0451 -34.989
f 191/30/55 192/29/55 193/28/55

g Mesh56 upper_girdle_facet14 crown brilliant_cut_diamond Model

v 30.8658 43.9032 -96.194
vn -0.363485 0.756274 -0.543994
v 14.6447 43.9032 -85.3553
v 34.989 53.0451 -86.2397
f 194/30/56 195/29/56 196/28/56

g Mesh57 upper_girdle_facet15 crown brilliant_cut_diamond Model

v 96.194 43.9032 -69.1342
vn 0.543994 0.756274 -0.363485
v 85.3553 43.9032 -85.3553
v 86.2397 53.0451 -65.011
f 197/30/57 198/29/57 199/28/57

g Mesh58 upper_girdle_facet16 crown brilliant_cut_diamond Model

v 30.8658 43.9032 -3.80602
vn -0.127639 0.756274 0.641684
v 50 43.9032 -1.24079e-13
v 34.989 53.0451 -13.7603
f 200/30/58 201/29/58 202/28/58

g Mesh59 girdle brilliant_cut_diamond Model

v 100 43.9032 -50
vt 2.69875 0.0787402
vn 1 0 1.75456e-15
v 96.194 43.9032 -30.8658
vt 1.93068 0.0787402
vn 0.92388 0 0.382683
v 96.194 41.9032 -30.8658
vt 1.93068 0
v 100 41.9032 -50
vt 2.69875 0
f 203/35/59 204/36/60 205/37/60 206/38/59 

vt 3.11443 0.0787402
v 85.3553 43.9032 -14.6447
vt 2.34636 0.0787402
vn 0.707107 0 0.707107
v 85.3553 41.9032 -14.6447
vt 2.34636 0
vt 3.11443 0
f 204/39/60 207/40/61 208/41/61 205/42/60 

v 69.1342 43.9032 -3.80602
vn 0.382683 0 0.92388
v 69.1342 41.9032 -3.80602
f 207/39/61 209/40/62 210/41/62 208/42/61 

v 50 43.9032 -1.52734e-14
vn -2.2498e-15 0 1
v 50 41.9032 -1.52734e-14
f 209/35/62 211/36/63 212/37/63 210/38/62 

v 30.8658 43.9032 -3.80602
vt 1.16261 0.0787402
vn -0.382683 0 0.92388
v 30.8658 41.9032 -3.80602
vt 1.16261 0
f 211/36/63 213/43/64 214/44/64 212/37/63 

vt 0.927145 0.0787402
vt 0.159073 0.0787402
vn -0.707107 0 0.707107
v 14.6447 41.9032 -14.6447
vt 0.159073 0
vt 0.927145 0
f 213/45/64 121/46/65 215/47/65 214/48/64 

vt -0.159073 0.0787402
v 3.80602 43.9032 -30.8658
vt -0.927145 0.0787402
vn -0.92388 0 0.382683
v 3.80602 41.9032 -30.8658
vt -0.927145 0
vt -0.159073 0
f 121/49/65 216/50/66 217/51/66 215/52/65 

vt -1.16261 0.0787402
v 1.83298e-14 43.9032 -50
vt -1.93068 0.0787402
vn -1 0 -8.4898e-16
v 1.83298e-14 41.9032 -50
vt -1.93068 0
vt -1.16261 0
f 216/53/66 218/54/67 219/55/67 217/56/66 

v 3.80602 43.9032 -69.1342
vt -2.69875 0.0787402
vn -0.92388 0 -0.382683
v 3.80602 41.9032 -69.1342
vt -2.69875 0
f 218/54/67 220/57/68 221/58/68 219/55/67 

vt -2.34636 0.0787402
v 14.6447 43.9032 -85.3553
vt -3.11443 0.0787402
vn -0.707107 0 -0.707107
v 14.6447 41.9032 -85.3553
vt -3.11443 0
vt -2.34636 0
f 220/59/68 222/60/69 223/61/69 221/62/68 

vn -0.382683 0 -0.92388
f 222/59/69 127/60/70 48/61/70 223/62/69 

v 50 43.9032 -100
vn 6.93334e-16 0 -1
v 50 41.9032 -100
f 127/54/70 224/57/71 225/58/71 48/55/70 

v 69.1342 43.9032 -96.194
vn 0.382683 0 -0.92388
v 69.1342 41.9032 -96.194
f 224/53/71 226/54/72 227/55/72 225/56/71 

v 85.3553 43.9032 -85.3553
vn 0.707107 0 -0.707107
v 85.3553 41.9032 -85.3553
f 226/49/72 228/50/73 229/51/73 227/52/72 

v 96.194 43.9032 -69.1342
vn 0.92388 0 -0.382683
v 96.194 41.9032 -69.1342
f 228/45/73 230/46/74 231/47/74 229/48/73 

f 230/36/74 203/43/59 206/44/59 231/37/74 

