# Blender v2.76 (sub 0) OBJ File: 'diamond.blend'
# www.blender.org
mtllib diamond.mtl
o Circle
v -0.761009 -2.083702 1.631991
v -1.064772 -2.083702 1.452167
v -1.327617 -2.083702 1.216537
v -1.539441 -2.083702 0.934156
v -1.692106 -2.083702 0.615876
v -1.779745 -2.083702 0.273929
v -1.798988 -2.083702 -0.078546
v -1.749098 -2.083702 -0.428002
v -1.631990 -2.083702 -0.761010
v -1.452167 -2.083702 -1.064774
v -1.216536 -2.083702 -1.327618
v -0.934155 -2.083702 -1.539443
v -0.615875 -2.083702 -1.692108
v -0.273927 -2.083702 -1.779746
v 0.078548 -2.083702 -1.798990
v 0.428004 -2.083702 -1.749099
v 0.761012 -2.083702 -1.631991
v 1.064775 -2.083702 -1.452167
v 1.327620 -2.083702 -1.216537
v 1.539445 -2.083702 -0.934155
v 1.692109 -2.083702 -0.615875
v 1.779747 -2.083702 -0.273928
v 1.798990 -2.083702 0.078547
v 1.749099 -2.083702 0.428004
v 1.631991 -2.083702 0.761012
v 1.452167 -2.083702 1.064775
v 1.216536 -2.083702 1.327619
v 0.934155 -2.083702 1.539443
v 0.615875 -2.083702 1.692108
v 0.273927 -2.083702 1.779746
v -0.078548 -2.083702 1.798989
v -0.428004 -2.083702 1.749098
v -0.040049 -1.712195 0.884166
v -0.653518 -1.712195 0.596880
v -0.884166 -1.712195 -0.040050
v -0.596880 -1.712195 -0.653520
v 0.040051 -1.712195 -0.884167
v 0.653521 -1.712195 -0.596881
v 0.884168 -1.712195 0.040049
v 0.596882 -1.712195 0.653519
v -1.247733 -1.888978 0.451832
v -0.451832 -1.888978 -1.247735
v 1.247736 -1.888978 -0.451833
v 0.451834 -1.888978 1.247734
v -0.562787 -1.888978 1.201775
v -1.201774 -1.888978 -0.562788
v 0.562789 -1.888978 -1.201776
v 1.201777 -1.888978 0.562787
v -0.761009 -2.086169 1.631991
v -1.064772 -2.095956 1.452167
v -1.327617 -2.095956 1.216537
v -1.539441 -2.095956 0.934156
v -1.692106 -2.086169 0.615876
v -1.779745 -2.095956 0.273929
v -1.798988 -2.095956 -0.078546
v -1.749098 -2.095956 -0.428002
v -1.631990 -2.086169 -0.761010
v -1.452167 -2.095956 -1.064774
v -1.216536 -2.095956 -1.327618
v -0.934155 -2.095956 -1.539443
v -0.615875 -2.086169 -1.692108
v -0.273927 -2.095956 -1.779746
v 0.078548 -2.095956 -1.798990
v 0.428004 -2.095956 -1.749099
v 0.761012 -2.086169 -1.631991
v 1.064775 -2.095956 -1.452167
v 1.327620 -2.095956 -1.216537
v 1.539445 -2.095956 -0.934155
v 1.692109 -2.086169 -0.615875
v 1.779747 -2.095956 -0.273928
v 1.798990 -2.095956 0.078547
v 1.749099 -2.095956 0.428004
v 1.631991 -2.086169 0.761012
v 1.452167 -2.095956 1.064775
v 1.216536 -2.095956 1.327619
v 0.934155 -2.095956 1.539443
v 0.615875 -2.086169 1.692108
v 0.273927 -2.095956 1.779746
v -0.078548 -2.095956 1.798989
v -0.428004 -2.095956 1.749098
v -0.916236 -2.095956 1.547729
v -1.200578 -2.095956 1.339241
v -1.621695 -2.095956 0.777856
v -1.547729 -2.095956 -0.916237
v -1.339241 -2.095956 -1.200579
v -0.446531 -2.095956 -1.742288
v -0.098048 -2.095956 -1.795925
v 0.254204 -2.095956 -1.780545
v 0.596686 -2.095956 -1.696740
v 1.200581 -2.095956 -1.339241
v 1.438785 -2.095956 -1.079286
v 1.621697 -2.095956 -0.777855
v 1.696740 -2.095956 0.596686
v 0.777855 -2.095956 1.621696
v 0.098047 -2.095956 1.795924
v -0.254204 -2.095956 1.780544
v -0.596685 -2.095956 1.696739
v -1.438782 -2.095956 1.079287
v -1.742286 -2.095956 0.446533
v -1.795923 -2.095956 0.098050
v -1.780544 -2.095956 -0.254202
v -1.696739 -2.095956 -0.596685
v -1.079286 -2.095956 -1.438784
v -0.777855 -2.095956 -1.621696
v 0.916239 -2.095956 -1.547730
v 1.742289 -2.095956 -0.446532
v 1.795926 -2.095956 -0.098048
v 1.780545 -2.095956 0.254203
v 1.547729 -2.095956 0.916239
v 1.339241 -2.095956 1.200580
v 1.079286 -2.095956 1.438784
v 0.446531 -2.095956 1.742288
v -0.761009 -2.159286 1.631991
v -0.615875 -2.159286 -1.692108
v 0.078548 -2.149498 -1.798990
v 0.761012 -2.159286 -1.631991
v -0.777855 -2.136905 -1.621696
v -0.934155 -2.125445 -1.539443
v -1.079286 -2.132064 -1.438784
v -1.798988 -2.149498 -0.078546
v 0.000001 -3.532742 0.000000
v -0.531520 -3.177747 -0.023207
v -0.359431 -3.177747 -0.392251
v -1.339920 -2.132064 -1.197486
v -1.453166 -2.125445 -1.061948
v -1.549079 -2.136905 -0.913637
v -1.631990 -2.159286 -0.761010
v -1.216536 -2.149498 -1.327618
v -1.741400 -2.136905 0.449328
v -1.778451 -2.125445 0.276636
v -1.794214 -2.132064 0.100719
v -1.780541 -2.132064 -0.254200
v -1.749095 -2.125445 -0.428000
v -1.696736 -2.136905 -0.596683
v -0.596679 -2.136905 1.696738
v -0.427996 -2.125445 1.749097
v -0.254196 -2.132064 1.780543
v 0.100723 -2.132064 1.794216
v 0.276640 -2.125445 1.778453
v 0.449332 -2.136905 1.741402
v -1.327615 -2.149498 1.216538
v -0.913633 -2.136905 1.549081
v -1.061944 -2.125445 1.453169
v -1.197483 -2.132064 1.339922
v -0.392248 -3.177747 0.359433
v -0.023203 -3.177747 0.531522
v -0.078542 -2.149498 1.798990
v -1.438780 -2.132064 1.079288
v -1.539439 -2.125445 0.934157
v -1.621692 -2.136905 0.777857
v -1.692104 -2.159286 0.615877
v 0.615880 -2.159286 1.692109
v 1.692104 -2.159286 -0.615878
v 1.621693 -2.136905 -0.777858
v 1.539439 -2.125445 -0.934158
v 1.438780 -2.132064 -1.079289
v 0.023203 -3.177747 -0.531523
v 0.392248 -3.177747 -0.359434
v 1.197483 -2.132064 -1.339923
v 1.061944 -2.125445 -1.453170
v 0.913634 -2.136905 -1.549082
v 1.327615 -2.149498 -1.216539
v -0.449332 -2.136905 -1.741403
v -0.276640 -2.125445 -1.778454
v -0.100723 -2.132064 -1.794217
v 0.254197 -2.132064 -1.780544
v 0.427997 -2.125445 -1.749098
v 0.596679 -2.136905 -1.696739
v 1.696736 -2.136905 0.596682
v 1.749095 -2.125445 0.427999
v 1.780541 -2.132064 0.254199
v 1.794215 -2.132064 -0.100720
v 1.778451 -2.125445 -0.276637
v 1.741400 -2.136905 -0.449330
v 1.216536 -2.149498 1.327617
v 1.631990 -2.159286 0.761009
v 1.549079 -2.136905 0.913636
v 1.453166 -2.125445 1.061947
v 1.339920 -2.132064 1.197485
v 0.359431 -3.177747 0.392250
v 0.531520 -3.177747 0.023205
v 1.798988 -2.149498 0.078545
v 1.079286 -2.132064 1.438783
v 0.934155 -2.125445 1.539442
v 0.777855 -2.136905 1.621695
vn 0.000000 -1.000000 0.000000
vn 0.308300 -0.944700 -0.111600
vn 0.111600 -0.944700 0.308300
vn -0.308300 -0.944700 0.111600
vn -0.111600 -0.944700 -0.308300
vn 0.139100 -0.944700 -0.297000
vn 0.297000 -0.944700 0.139100
vn -0.139100 -0.944700 0.297000
vn -0.297000 -0.944700 -0.139100
vn 0.277600 -0.926600 -0.253500
vn 0.017000 -0.926600 -0.375600
vn -0.253500 -0.926600 -0.277600
vn -0.375600 -0.926600 -0.017000
vn -0.277600 -0.926600 0.253500
vn -0.017000 -0.926600 0.375600
vn 0.253500 -0.926600 0.277600
vn 0.375600 -0.926600 0.017000
vn 0.055300 -0.931500 0.359500
vn 0.188400 -0.931700 0.310500
vn 0.293300 -0.931500 0.215000
vn 0.352700 -0.931700 0.086300
vn 0.359500 -0.931500 -0.055300
vn 0.310500 -0.931700 -0.188400
vn 0.215000 -0.931500 -0.293300
vn 0.086300 -0.931700 -0.352700
vn -0.055300 -0.931500 -0.359500
vn -0.188400 -0.931700 -0.310500
vn -0.293300 -0.931500 -0.215000
vn -0.352700 -0.931700 -0.086300
vn -0.359500 -0.931500 0.055300
vn -0.310500 -0.931700 0.188400
vn -0.215000 -0.931500 0.293300
vn -0.086300 -0.931700 0.352700
vn 0.542400 0.013800 -0.840000
vn 0.477200 0.000500 -0.878800
vn 0.639300 0.038000 -0.768000
vn 0.690600 0.018400 -0.723000
vn 0.917100 0.000000 -0.398700
vn 0.884900 0.000000 -0.465700
vn 0.840000 0.013800 0.542400
vn 0.878800 0.000500 0.477200
vn 0.723000 0.018300 0.690600
vn 0.768100 0.038000 0.639300
vn 0.283900 0.000500 0.958800
vn 0.210500 0.013700 0.977500
vn 0.091100 0.038000 0.995100
vn 0.022900 0.018400 0.999600
vn -0.178000 0.000100 0.984000
vn -0.104400 0.000000 0.994500
vn -0.366600 0.000000 0.930400
vn -0.296400 0.000100 0.955000
vn -0.639300 0.038100 0.768000
vn -0.690600 0.018400 0.723000
vn -0.821700 0.000100 0.569900
vn -0.777100 0.000100 0.629400
vn -0.884900 0.000100 0.465700
vn -0.917100 0.000100 0.398700
vn -0.930400 0.000100 -0.366600
vn -0.955100 0.000200 -0.296400
vn -0.398700 -0.000000 -0.917100
vn -0.465700 0.000000 -0.884900
vn -0.022900 0.018300 -0.999600
vn -0.091100 0.038000 -0.995100
vn 0.178000 0.000100 -0.984000
vn 0.104400 0.000000 -0.994500
vn 0.366600 0.000000 -0.930400
vn 0.296400 0.000100 -0.955000
vn -0.283900 0.000500 -0.958800
vn -0.210500 0.013800 -0.977500
vn -0.629400 0.000000 -0.777100
vn -0.569900 0.000000 -0.821700
vn -0.723000 0.018400 -0.690600
vn -0.768000 0.038100 -0.639300
vn -0.878800 0.000500 -0.477200
vn -0.840000 0.013800 -0.542400
vn -0.994500 0.000100 -0.104400
vn -0.984000 0.000200 -0.178000
vn -0.995100 0.038200 0.091100
vn -0.999600 0.018400 0.022900
vn -0.958800 0.000500 0.283900
vn -0.977500 0.013900 0.210500
vn -0.542400 0.013800 0.840000
vn -0.477200 0.000500 0.878800
vn 0.398700 0.000000 0.917100
vn 0.465700 0.000000 0.884900
vn 0.569900 0.000000 0.821700
vn 0.629400 0.000000 0.777100
vn 0.930400 0.000000 0.366600
vn 0.955100 0.000100 0.296400
vn 0.984000 0.000100 0.178000
vn 0.994500 0.000000 0.104400
vn 0.999600 0.018400 -0.022900
vn 0.995100 0.038100 -0.091100
vn 0.958800 0.000500 -0.283900
vn 0.977500 0.013800 -0.210500
vn 0.821700 0.000000 -0.569900
vn 0.777100 0.000000 -0.629400
vn 0.340200 0.771600 0.537400
vn 0.338200 0.771800 0.538500
vn 0.338300 0.771800 0.538500
vn 0.339600 0.771700 0.537700
vn -0.505500 -0.771400 -0.386500
vn -0.506300 -0.771500 -0.385300
vn -0.510200 -0.771300 -0.380400
vn -0.505000 -0.771300 -0.387400
vn -0.631000 -0.771300 0.083100
vn -0.629800 -0.771300 0.091800
vn -0.630500 -0.771500 0.085500
vn -0.630800 -0.771400 0.084100
vn 0.620400 0.771700 0.140100
vn 0.619900 0.771800 0.141600
vn 0.619900 0.771800 0.141700
vn 0.620600 0.771600 0.139400
vn 0.139400 0.771600 -0.620600
vn 0.141700 0.771800 -0.619900
vn 0.141600 0.771800 -0.619900
vn 0.140100 0.771700 -0.620400
vn 0.084100 -0.771400 0.630800
vn 0.085500 -0.771500 0.630500
vn 0.091800 -0.771300 0.629800
vn 0.083100 -0.771300 0.631000
vn -0.387400 -0.771300 0.505000
vn -0.380400 -0.771300 0.510200
vn -0.385400 -0.771500 0.506300
vn -0.386500 -0.771400 0.505500
vn 0.537700 0.771700 -0.339600
vn 0.538500 0.771800 -0.338300
vn 0.538500 0.771800 -0.338200
vn 0.537400 0.771600 -0.340200
vn -0.537400 0.771600 0.340200
vn -0.538500 0.771800 0.338200
vn -0.538500 0.771800 0.338300
vn -0.537700 0.771700 0.339600
vn 0.386500 -0.771400 -0.505500
vn 0.385400 -0.771500 -0.506300
vn 0.380400 -0.771300 -0.510200
vn 0.387400 -0.771300 -0.505000
vn -0.083100 -0.771300 -0.631000
vn -0.091800 -0.771300 -0.629800
vn -0.085500 -0.771500 -0.630500
vn -0.084100 -0.771400 -0.630800
vn -0.140100 0.771700 0.620400
vn -0.141600 0.771800 0.619900
vn -0.141700 0.771800 0.619900
vn -0.139400 0.771600 0.620600
vn -0.620600 0.771600 -0.139400
vn -0.619900 0.771800 -0.141700
vn -0.619900 0.771800 -0.141600
vn -0.620400 0.771700 -0.140100
vn 0.630800 -0.771400 -0.084100
vn 0.630500 -0.771500 -0.085500
vn 0.629800 -0.771300 -0.091800
vn 0.631000 -0.771300 -0.083100
vn 0.505000 -0.771300 0.387400
vn 0.510200 -0.771300 0.380400
vn 0.506300 -0.771500 0.385300
vn 0.505500 -0.771400 0.386500
vn -0.339600 0.771700 -0.537700
vn -0.338300 0.771800 -0.538500
vn -0.338200 0.771800 -0.538500
vn -0.340300 0.771600 -0.537400
vn 0.549600 0.795100 0.256300
vn 0.569900 0.795100 -0.207400
vn 0.256300 0.795100 -0.549600
vn -0.207400 0.795100 -0.569900
vn -0.549600 0.795100 -0.256300
vn -0.569900 0.795100 0.207400
vn -0.256300 0.795100 0.549600
vn 0.207400 0.795100 0.569900
vn 0.491300 -0.556500 -0.670000
vn 0.350100 -0.559900 -0.750900
vn 0.497100 -0.228400 -0.837100
vn 0.422700 0.000100 -0.906300
vn 0.593200 0.013300 -0.805000
vn 0.651000 -0.218600 -0.726900
vn 0.612800 -0.556100 -0.561400
vn 0.736300 0.004600 -0.676600
vn 0.778100 -0.232000 -0.583700
vn 0.710100 -0.556700 -0.430900
vn 0.854900 0.000000 -0.518800
vn 0.877000 -0.232000 -0.420700
vn 0.778500 -0.559900 -0.283400
vn 0.939700 0.000100 -0.342000
vn 0.943400 -0.228400 -0.240400
vn 0.821100 -0.556500 -0.126400
vn 0.988600 0.013400 -0.149800
vn 0.974300 -0.218600 -0.053700
vn 0.830300 -0.556100 0.036300
vn 0.999100 0.004600 0.042200
vn 0.962900 -0.232000 0.137500
vn 0.806800 -0.556700 0.197400
vn 0.971300 0.000000 0.237700
vn 0.917600 -0.232000 0.322700
vn 0.750900 -0.559900 0.350000
vn 0.906300 0.000100 0.422600
vn 0.837100 -0.228400 0.497100
vn 0.670000 -0.556500 0.491300
vn 0.805000 0.013300 0.593200
vn 0.726900 -0.218600 0.651000
vn 0.561400 -0.556100 0.612800
vn 0.676600 0.004600 0.736300
vn 0.583700 -0.232000 0.778100
vn 0.430900 -0.556700 0.710100
vn 0.518800 0.000000 0.854900
vn 0.420700 -0.232000 0.877000
vn 0.283500 -0.559900 0.778500
vn 0.342000 0.000100 0.939700
vn 0.240400 -0.228400 0.943400
vn 0.126400 -0.556500 0.821100
vn 0.149700 0.013300 0.988600
vn 0.053600 -0.218600 0.974300
vn -0.036300 -0.556100 0.830300
vn -0.042200 0.004600 0.999100
vn -0.137500 -0.232000 0.962900
vn -0.197400 -0.556700 0.806800
vn -0.237700 0.000000 0.971300
vn -0.322700 -0.232000 0.917600
vn -0.350100 -0.559900 0.750900
vn -0.422700 0.000100 0.906300
vn -0.497100 -0.228400 0.837100
vn -0.491300 -0.556500 0.670000
vn -0.593200 0.013300 0.805000
vn -0.651000 -0.218600 0.726900
vn -0.612800 -0.556100 0.561400
vn -0.736300 0.004600 0.676600
vn -0.778100 -0.232000 0.583700
vn -0.710100 -0.556700 0.430900
vn -0.854900 0.000000 0.518800
vn -0.877000 -0.232000 0.420700
vn -0.778500 -0.559900 0.283400
vn -0.939700 0.000100 0.342000
vn -0.943400 -0.228400 0.240400
vn -0.821100 -0.556500 0.126400
vn -0.988600 0.013400 0.149700
vn -0.974300 -0.218500 0.053700
vn -0.830300 -0.556100 -0.036300
vn -0.999100 0.004600 -0.042200
vn -0.963000 -0.232000 -0.137500
vn -0.806800 -0.556700 -0.197400
vn -0.971300 0.000100 -0.237700
vn -0.917600 -0.232000 -0.322700
vn -0.750900 -0.559900 -0.350000
vn -0.906300 0.000100 -0.422600
vn -0.837100 -0.228400 -0.497100
vn -0.670000 -0.556500 -0.491300
vn -0.805000 0.013300 -0.593200
vn -0.726900 -0.218500 -0.651000
vn -0.561400 -0.556100 -0.612800
vn -0.676600 0.004600 -0.736300
vn -0.583700 -0.232000 -0.778100
vn -0.430900 -0.556700 -0.710100
vn -0.518800 0.000000 -0.854900
vn -0.420700 -0.232000 -0.877000
vn -0.283500 -0.559900 -0.778500
vn -0.342000 0.000100 -0.939700
vn -0.240400 -0.228400 -0.943400
vn -0.126400 -0.556500 -0.821100
vn -0.149700 0.013300 -0.988600
vn -0.053600 -0.218600 -0.974300
vn 0.036300 -0.556100 -0.830300
vn 0.042200 0.004600 -0.999100
vn 0.137500 -0.232000 -0.962900
vn 0.197400 -0.556700 -0.806800
vn 0.237700 0.000000 -0.971300
vn 0.322700 -0.232000 -0.917600
usemtl Material.003
s off
f 33//1 37//1 40//1
f 34//1 35//1 36//1
f 37//1 39//1 40//1
f 37//1 38//1 39//1
f 33//1 34//1 36//1
f 33//1 36//1 37//1
f 35//2 34//2 41//2
f 37//3 36//3 42//3
f 39//4 38//4 43//4
f 33//5 40//5 44//5
f 34//6 33//6 45//6
f 36//7 35//7 46//7
f 38//8 37//8 47//8
f 40//9 39//9 48//9
f 3//10 41//10 34//10 45//10
f 31//11 45//11 33//11 44//11
f 27//12 44//12 40//12 48//12
f 23//13 48//13 39//13 43//13
f 19//14 43//14 38//14 47//14
f 15//15 47//15 37//15 42//15
f 11//16 42//16 36//16 46//16
f 7//17 46//17 35//17 41//17
f 13//18 14//18 15//18 42//18
f 11//19 12//19 13//19 42//19
f 9//20 10//20 11//20 46//20
f 7//21 8//21 9//21 46//21
f 5//22 6//22 7//22 41//22
f 3//23 4//23 5//23 41//23
f 1//24 2//24 3//24 45//24
f 1//25 45//25 31//25 32//25
f 29//26 30//26 31//26 44//26
f 27//27 28//27 29//27 44//27
f 25//28 26//28 27//28 48//28
f 23//29 24//29 25//29 48//29
f 21//30 22//30 23//30 43//30
f 19//31 20//31 21//31 43//31
f 17//32 18//32 19//32 47//32
f 15//33 16//33 17//33 47//33
f 50//34 81//34 142//34 143//34
f 81//35 49//35 113//35 142//35
f 82//36 50//36 143//36 144//36
f 51//37 82//37 144//37 141//37
f 53//38 83//38 150//38 151//38
f 83//39 52//39 149//39 150//39
f 58//40 84//40 126//40 125//40
f 84//41 57//41 127//41 126//41
f 59//42 85//42 124//42 128//42
f 85//43 58//43 125//43 124//43
f 86//44 61//44 114//44 163//44
f 62//45 86//45 163//45 164//45
f 87//46 62//46 164//46 165//46
f 63//47 87//47 165//47 115//47
f 64//48 88//48 166//48 167//48
f 88//49 63//49 115//49 166//49
f 65//50 89//50 168//50 116//50
f 89//51 64//51 167//51 168//51
f 90//52 66//52 160//52 159//52
f 67//53 90//53 159//53 162//53
f 68//54 91//54 156//54 155//54
f 91//55 67//55 162//55 156//55
f 92//56 68//56 155//56 154//56
f 69//57 92//57 154//57 153//57
f 73//58 93//58 169//58 176//58
f 93//59 72//59 170//59 169//59
f 77//60 94//60 185//60 152//60
f 94//61 76//61 184//61 185//61
f 79//62 95//62 138//62 147//62
f 95//63 78//63 139//63 138//63
f 80//64 96//64 137//64 136//64
f 96//65 79//65 147//65 137//65
f 49//66 97//66 135//66 113//66
f 97//67 80//67 136//67 135//67
f 112//68 77//68 152//68 140//68
f 78//69 112//69 140//69 139//69
f 111//70 75//70 175//70 183//70
f 76//71 111//71 183//71 184//71
f 75//72 110//72 179//72 175//72
f 110//73 74//73 178//73 179//73
f 109//74 73//74 176//74 177//74
f 74//75 109//75 177//75 178//75
f 108//76 71//76 182//76 171//76
f 72//77 108//77 171//77 170//77
f 107//78 70//78 173//78 172//78
f 71//79 107//79 172//79 182//79
f 106//80 69//80 153//80 174//80
f 70//81 106//81 174//81 173//81
f 66//82 105//82 161//82 160//82
f 105//83 65//83 116//83 161//83
f 61//84 104//84 117//84 114//84
f 104//85 60//85 118//85 117//85
f 60//86 103//86 119//86 118//86
f 103//87 59//87 128//87 119//87
f 57//88 102//88 134//88 127//88
f 102//89 56//89 133//89 134//89
f 56//90 101//90 132//90 133//90
f 101//91 55//91 120//91 132//91
f 55//92 100//92 131//92 120//92
f 100//93 54//93 130//93 131//93
f 99//94 53//94 151//94 129//94
f 54//95 99//95 129//95 130//95
f 52//96 98//96 148//96 149//96
f 98//97 51//97 141//97 148//97
f 114//98 117//98 123//98
f 128//99 123//99 119//99
f 118//100 119//100 123//100
f 117//101 118//101 123//101
f 126//102 125//102 123//102
f 125//103 124//103 123//103
f 128//104 123//104 124//104
f 127//105 126//105 123//105
f 151//106 129//106 122//106
f 120//107 122//107 131//107
f 130//108 131//108 122//108
f 129//109 130//109 122//109
f 134//110 133//110 122//110
f 133//111 132//111 122//111
f 120//112 122//112 132//112
f 127//113 134//113 122//113
f 113//114 135//114 146//114
f 147//115 146//115 137//115
f 136//116 137//116 146//116
f 135//117 136//117 146//117
f 140//118 139//118 146//118
f 139//119 138//119 146//119
f 147//120 146//120 138//120
f 152//121 140//121 146//121
f 113//122 142//122 145//122
f 141//123 145//123 144//123
f 143//124 144//124 145//124
f 142//125 143//125 145//125
f 150//126 149//126 145//126
f 149//127 148//127 145//127
f 141//128 145//128 148//128
f 151//129 150//129 145//129
f 153//130 154//130 158//130
f 162//131 158//131 156//131
f 155//132 156//132 158//132
f 154//133 155//133 158//133
f 161//134 160//134 158//134
f 160//135 159//135 158//135
f 162//136 158//136 159//136
f 116//137 161//137 158//137
f 114//138 163//138 157//138
f 115//139 157//139 165//139
f 164//140 165//140 157//140
f 163//141 164//141 157//141
f 168//142 167//142 157//142
f 167//143 166//143 157//143
f 115//144 157//144 166//144
f 116//145 168//145 157//145
f 176//146 169//146 181//146
f 182//147 181//147 171//147
f 170//148 171//148 181//148
f 169//149 170//149 181//149
f 174//150 173//150 181//150
f 173//151 172//151 181//151
f 182//152 181//152 172//152
f 153//153 174//153 181//153
f 176//154 177//154 180//154
f 175//155 180//155 179//155
f 178//156 179//156 180//156
f 177//157 178//157 180//157
f 185//158 184//158 180//158
f 184//159 183//159 180//159
f 175//160 180//160 183//160
f 152//161 185//161 180//161
f 121//162 123//162 127//162 122//162
f 121//163 122//163 151//163 145//163
f 113//164 146//164 121//164 145//164
f 121//165 146//165 152//165 180//165
f 121//166 180//166 176//166 181//166
f 121//167 181//167 153//167 158//167
f 116//168 157//168 121//168 158//168
f 114//169 123//169 121//169 157//169
s 1
f 2//170 1//171 81//172
f 81//172 1//171 49//173
f 81//172 50//174 2//170
f 82//175 3//176 2//170
f 50//174 82//175 2//170
f 82//175 51//177 3//176
f 98//178 4//179 3//176
f 51//177 98//178 3//176
f 98//178 52//180 4//179
f 83//181 5//182 4//179
f 52//180 83//181 4//179
f 83//181 53//183 5//182
f 99//184 6//185 5//182
f 53//183 99//184 5//182
f 99//184 54//186 6//185
f 100//187 7//188 6//185
f 54//186 100//187 6//185
f 100//187 55//189 7//188
f 101//190 8//191 7//188
f 55//189 101//190 7//188
f 101//190 56//192 8//191
f 102//193 9//194 8//191
f 56//192 102//193 8//191
f 102//193 57//195 9//194
f 84//196 10//197 9//194
f 57//195 84//196 9//194
f 84//196 58//198 10//197
f 85//199 11//200 10//197
f 58//198 85//199 10//197
f 85//199 59//201 11//200
f 103//202 12//203 11//200
f 59//201 103//202 11//200
f 103//202 60//204 12//203
f 104//205 13//206 12//203
f 60//204 104//205 12//203
f 104//205 61//207 13//206
f 86//208 14//209 13//206
f 61//207 86//208 13//206
f 86//208 62//210 14//209
f 87//211 15//212 14//209
f 62//210 87//211 14//209
f 87//211 63//213 15//212
f 88//214 16//215 15//212
f 63//213 88//214 15//212
f 88//214 64//216 16//215
f 89//217 17//218 16//215
f 64//216 89//217 16//215
f 89//217 65//219 17//218
f 105//220 18//221 17//218
f 65//219 105//220 17//218
f 105//220 66//222 18//221
f 90//223 19//224 18//221
f 66//222 90//223 18//221
f 90//223 67//225 19//224
f 91//226 20//227 19//224
f 67//225 91//226 19//224
f 91//226 68//228 20//227
f 92//229 21//230 20//227
f 68//228 92//229 20//227
f 92//229 69//231 21//230
f 106//232 22//233 21//230
f 69//231 106//232 21//230
f 106//232 70//234 22//233
f 107//235 23//236 22//233
f 70//234 107//235 22//233
f 107//235 71//237 23//236
f 108//238 24//239 23//236
f 71//237 108//238 23//236
f 108//238 72//240 24//239
f 93//241 25//242 24//239
f 72//240 93//241 24//239
f 93//241 73//243 25//242
f 109//244 26//245 25//242
f 73//243 109//244 25//242
f 109//244 74//246 26//245
f 110//247 27//248 26//245
f 74//246 110//247 26//245
f 110//247 75//249 27//248
f 111//250 28//251 27//248
f 75//249 111//250 27//248
f 111//250 76//252 28//251
f 94//253 29//254 28//251
f 76//252 94//253 28//251
f 94//253 77//255 29//254
f 112//256 30//257 29//254
f 77//255 112//256 29//254
f 112//256 78//258 30//257
f 95//259 31//260 30//257
f 78//258 95//259 30//257
f 95//259 79//261 31//260
f 96//262 32//263 31//260
f 79//261 96//262 31//260
f 96//262 80//264 32//263
f 97//265 1//171 32//263
f 80//264 97//265 32//263
f 49//173 1//171 97//265
