# Alias OBJ Model File
# Exported from SketchUp, (c) 2000-2012 Trimble Navigation Limited
# File units = meters

mtllib hexagondiamond.mtl

g Mesh1 Model

usemtl _1
v -3.5 0 6.06218
vt 137.795 -202.877
vn -0.456153 0.850038 0.26336
v -4.30241 0.678 2.484
vt 1.49214e-13 -152.2
v -7 0 -8.57224e-16
vt -137.795 -202.877
f 1/1/1 2/2/1 3/3/1

v 6.08384e-16 0.678 4.968
vt -97.7953 -157.771
vn 0.121877 -0.969837 -0.211098
vt 2.42473e-13 -267.278
vt 97.7953 -157.771
f 4/4/2 1/5/2 2/6/2

v 3.5 0 6.06218
vn -3.25487e-16 0.850038 0.526721
vt 1.44817e-13 -152.2
f 5/1/3 4/7/3 1/3/3

v 4.30241 0.678 2.484
vn -0.121877 -0.969837 -0.211098
vt 2.9754e-13 -267.278
f 6/4/4 5/8/4 4/6/4

v 7 0 -0
vn 0.456153 0.850038 0.26336
vt 1.27898e-13 -152.2
f 7/1/5 6/9/5 5/3/5

vt 3.94857e-14 -267.278
vn -0.243755 -0.969837 3.49243e-17
v 4.30241 0.678 -2.484
f 7/10/6 6/6/6 8/4/6

vt -2.39521e-14 -195.591
vn 0 -1 -0
vt -169.386 97.7953
vt -169.386 -97.7953
f 4/11/7 8/12/7 6/13/7

v 0 0.678 -4.968
vt 0 195.591
f 4/11/7 9/14/7 8/12/7

vt 169.386 -97.7953
f 2/15/7 9/14/7 4/11/7

v -4.30241 0.678 -2.484
vt 169.386 97.7953
f 9/14/7 2/15/7 10/16/7

vn -0.243755 0.969837 1.45492e-16
vt -1.98244e-13 -267.278
f 2/6/8 10/4/8 3/17/8

v -3.5 0 -6.06218
vn -0.456153 0.850038 -0.26336
vt 1.66978e-13 -152.2
f 11/3/9 3/1/9 10/18/9

vt -137.795 202.877
vn -0.456153 -0.850038 -0.26336
v -4.30241 -0.678 -2.484
vt 1.52767e-13 152.2
vt 137.795 202.877
f 11/19/10 12/20/10 3/21/10

v 1.80478e-15 -0.678 -4.968
vt 97.7953 157.771
vn 0.121877 0.969837 0.211098
vt 6.81233e-13 267.278
vt -97.7953 157.771
f 13/22/11 11/23/11 12/24/11

v 3.5 0 -6.06218
vn 1.09662e-16 -0.850038 -0.526721
vt -3.03328e-14 152.2
f 14/19/12 13/25/12 11/21/12

v 4.30241 -0.678 -2.484
vn -0.121877 0.969837 0.211098
vt -5.25802e-13 267.278
f 15/22/13 14/26/13 13/24/13

vn 0.456153 -0.850038 -0.26336
vt -1.63425e-13 152.2
f 7/19/14 15/27/14 14/21/14

vt 9.79759e-13 267.278
vn 0.243755 -0.969837 8.66579e-16
v 4.30241 -0.678 2.484
f 7/28/15 16/24/15 15/22/15

vn 0.456153 -0.850038 0.26336
vt -8.17124e-14 152.2
f 7/21/16 5/19/16 16/29/16

vn -0.121877 0.969837 -0.211098
v 1.80478e-15 -0.678 4.968
vt 1.40599e-12 267.278
f 16/24/17 17/22/17 5/30/17

vt 7.93122e-14 195.591
vn 3.09367e-16 1 -2.93652e-16
vt 7.93122e-14 -195.591
f 13/31/18 17/32/18 16/15/18

f 12/12/18 17/32/18 13/31/18

v -4.30241 -0.678 2.484
f 17/32/18 12/12/18 18/13/18

vn 0.243755 0.969837 -8.75243e-16
vt 1.0233e-12 267.278
f 12/22/19 3/33/19 18/24/19

vn -0.456153 -0.850038 0.26336
vt -9.9476e-14 152.2
f 1/21/20 3/19/20 18/34/20

vn 0.121877 0.969837 -0.211098
vt -1.64935e-12 267.278
f 17/24/21 18/22/21 1/35/21

vn -3.23051e-16 -0.850038 0.526721
vt 1.91015e-13 152.2
f 5/21/22 1/19/22 17/36/22

f 13/31/18 16/15/18 15/16/18

vn 0.456153 0.850038 -0.26336
vt -1.42109e-14 -152.2
f 7/3/23 14/1/23 8/37/23

vn -0.121877 -0.969837 0.211098
vt 4.35207e-14 -267.278
f 8/6/24 9/4/24 14/38/24

vn 1.06726e-16 0.850038 -0.526721
vt 3.96314e-14 -152.2
f 14/3/25 11/1/25 9/39/25

vn 0.121877 -0.969837 0.211098
vt 1.4122e-13 -267.278
f 9/6/26 10/4/26 11/40/26

